<?xml version="1.0" encoding="utf-8"?>
<!-- Generator: Adobe Illustrator 23.0.4, SVG Export Plug-In . SVG Version: 6.00 Build 0)  -->
<svg version="1.1" id="Layer_1" xmlns="http://www.w3.org/2000/svg" xmlns:xlink="http://www.w3.org/1999/xlink" x="0px" y="0px"
	 viewBox="0 0 381.39 123.91" style="enable-background:new 0 0 381.39 123.91;" xml:space="preserve">
<style type="text/css">
	.st0{fill:#FFFFFF;}
</style>
<g>
	<g>
		<path class="st0" d="M86.16,119.49H54.89L22.66,57.32h-0.54c0.76,9.78,1.15,17.24,1.15,22.4v39.78H2.13V31.24h31.15L65.4,92.57
			h0.36c-0.56-8.89-0.85-16.04-0.85-21.43v-39.9h21.25V119.49z"/>
		<path class="st0" d="M91.62,109.47c0-3.7,1.1-6.56,3.29-8.57c2.19-2.01,5.38-3.02,9.57-3.02c3.98,0,7.04,1.01,9.18,3.02
			c2.13,2.01,3.2,4.87,3.2,8.57c0,3.62-1.1,6.45-3.29,8.48c-2.19,2.03-5.22,3.05-9.09,3.05c-3.98,0-7.12-1.01-9.42-3.02
			C92.77,115.97,91.62,113.14,91.62,109.47z"/>
		<path class="st0" d="M205.01,75.24c0,14.85-3.64,26.14-10.93,33.87c-7.28,7.73-17.95,11.59-31.99,11.59
			c-13.84,0-24.46-3.88-31.84-11.65c-7.39-7.77-11.08-19.08-11.08-33.93c0-14.69,3.67-25.91,11.02-33.65
			c7.34-7.75,18.02-11.62,32.02-11.62c14.04,0,24.69,3.84,31.93,11.53C201.39,49.07,205.01,60.36,205.01,75.24z M144.28,75.24
			c0,17.06,5.94,25.6,17.81,25.6c6.04,0,10.51-2.07,13.43-6.22c2.92-4.14,4.38-10.6,4.38-19.38c0-8.81-1.48-15.32-4.44-19.53
			c-2.96-4.2-7.38-6.31-13.25-6.31C150.26,49.41,144.28,58.02,144.28,75.24z"/>
		<path class="st0" d="M207.33,109.47c0-3.7,1.1-6.56,3.29-8.57c2.19-2.01,5.38-3.02,9.57-3.02c3.98,0,7.04,1.01,9.18,3.02
			c2.13,2.01,3.2,4.87,3.2,8.57c0,3.62-1.1,6.45-3.29,8.48c-2.19,2.03-5.22,3.05-9.09,3.05c-3.98,0-7.12-1.01-9.42-3.02
			S207.33,113.14,207.33,109.47z"/>
		<path class="st0" d="M354.36,109.47c0-3.7,1.1-6.56,3.29-8.57c2.19-2.01,5.38-3.02,9.57-3.02c3.98,0,7.04,1.01,9.18,3.02
			c2.13,2.01,3.2,4.87,3.2,8.57c0,3.62-1.1,6.45-3.29,8.48c-2.19,2.03-5.22,3.05-9.09,3.05c-3.98,0-7.12-1.01-9.42-3.02
			S354.36,113.14,354.36,109.47z"/>
		<path class="st0" d="M333.46,119.49h-28.19l-8.45-38.45c-0.4-1.61-1.04-4.81-1.9-9.6c-0.87-4.79-1.5-8.79-1.9-12.01
			c-0.32,2.62-0.84,5.87-1.57,9.75c-0.72,3.88-1.44,7.45-2.14,10.71c-0.7,3.26-3.63,16.46-8.78,39.6h-28.19l-21.85-88.26h23
			l9.6,44.25c2.17,9.78,3.66,17.57,4.47,23.36c0.52-4.1,1.46-9.68,2.81-16.72c1.35-7.04,2.61-12.88,3.77-17.51l7.79-33.38H304
			l7.55,33.38c1.29,5.35,2.6,11.53,3.92,18.53s2.21,12.23,2.66,15.69c0.52-4.47,1.95-12.21,4.29-23.24l9.78-44.37h23L333.46,119.49z
			"/>
	</g>
	<g>
		<path class="st0" d="M17.51,23.53h-2.65L3.92,6.75H3.81c0.15,1.97,0.22,3.78,0.22,5.42v11.37H1.88v-20h2.63l10.9,16.72h0.11
			c-0.02-0.25-0.06-1.04-0.12-2.37c-0.06-1.34-0.09-2.29-0.07-2.87V3.53h2.17V23.53z"/>
		<path class="st0" d="M38.36,23.53H27.21v-20h11.15V5.6h-8.82v6.44h8.29v2.05h-8.29v7.36h8.82V23.53z"/>
		<path class="st0" d="M53.15,23.53h-2.33V5.6h-6.33V3.53h14.99V5.6h-6.33V23.53z"/>
		<path class="st0" d="M84.15,23.53h-2.3l-4.04-13.39c-0.19-0.59-0.41-1.34-0.64-2.24c-0.24-0.9-0.36-1.44-0.37-1.63
			c-0.2,1.2-0.52,2.52-0.96,3.95l-3.91,13.31h-2.3l-5.32-20h2.46l3.16,12.35c0.44,1.73,0.76,3.3,0.96,4.71
			c0.25-1.67,0.61-3.3,1.09-4.9l3.58-12.16h2.46L81.8,15.8c0.44,1.41,0.81,3.01,1.11,4.79c0.17-1.29,0.5-2.87,0.99-4.73l3.15-12.33
			h2.46L84.15,23.53z"/>
		<path class="st0" d="M114.19,13.5c0,3.2-0.81,5.72-2.43,7.55c-1.62,1.83-3.87,2.75-6.75,2.75c-2.95,0-5.22-0.9-6.82-2.7
			c-1.6-1.8-2.4-4.34-2.4-7.63c0-3.26,0.8-5.78,2.41-7.57c1.6-1.79,3.88-2.69,6.84-2.69c2.87,0,5.12,0.91,6.73,2.74
			C113.38,7.78,114.19,10.29,114.19,13.5z M98.25,13.5c0,2.71,0.58,4.76,1.73,6.16c1.15,1.4,2.83,2.1,5.03,2.1
			c2.22,0,3.89-0.7,5.02-2.09c1.13-1.4,1.7-3.45,1.7-6.17c0-2.69-0.56-4.73-1.69-6.12c-1.13-1.39-2.79-2.09-5-2.09
			c-2.22,0-3.9,0.7-5.05,2.1C98.83,8.8,98.25,10.83,98.25,13.5z"/>
		<path class="st0" d="M125.18,15.21v8.32h-2.33v-20h5.49c2.45,0,4.27,0.47,5.44,1.41c1.17,0.94,1.76,2.35,1.76,4.24
			c0,2.65-1.34,4.43-4.02,5.36l5.43,8.99h-2.75l-4.84-8.32H125.18z M125.18,13.22h3.19c1.64,0,2.85-0.33,3.61-0.98
			c0.77-0.65,1.15-1.63,1.15-2.93c0-1.32-0.39-2.28-1.17-2.86c-0.78-0.58-2.03-0.88-3.76-0.88h-3.02V13.22z"/>
		<path class="st0" d="M158.82,23.53h-2.74l-7.29-9.7l-2.09,1.86v7.84h-2.33v-20h2.33v9.92l9.07-9.92h2.75l-8.04,8.69L158.82,23.53z
			"/>
		<path class="st0" d="M194.61,13.5c0,3.2-0.81,5.72-2.43,7.55c-1.62,1.83-3.87,2.75-6.75,2.75c-2.95,0-5.22-0.9-6.82-2.7
			c-1.6-1.8-2.4-4.34-2.4-7.63c0-3.26,0.8-5.78,2.41-7.57c1.61-1.79,3.88-2.69,6.84-2.69c2.87,0,5.12,0.91,6.73,2.74
			C193.8,7.78,194.61,10.29,194.61,13.5z M178.68,13.5c0,2.71,0.58,4.76,1.73,6.16c1.15,1.4,2.83,2.1,5.03,2.1
			c2.22,0,3.89-0.7,5.02-2.09c1.13-1.4,1.7-3.45,1.7-6.17c0-2.69-0.56-4.73-1.69-6.12c-1.13-1.39-2.79-2.09-5-2.09
			c-2.22,0-3.9,0.7-5.05,2.1C179.25,8.8,178.68,10.83,178.68,13.5z"/>
		<path class="st0" d="M205.6,23.53h-2.33v-20h11.15V5.6h-8.82v7.32h8.29v2.07h-8.29V23.53z"/>
		<path class="st0" d="M250.87,23.53h-2.3l-4.04-13.39c-0.19-0.59-0.41-1.34-0.64-2.24c-0.24-0.9-0.36-1.44-0.37-1.63
			c-0.2,1.2-0.52,2.52-0.96,3.95l-3.91,13.31h-2.3l-5.32-20h2.46l3.16,12.35c0.44,1.73,0.76,3.3,0.96,4.71
			c0.25-1.67,0.61-3.3,1.09-4.9l3.58-12.16h2.46l3.76,12.27c0.44,1.41,0.81,3.01,1.11,4.79c0.17-1.29,0.5-2.87,0.98-4.73l3.15-12.33
			h2.46L250.87,23.53z"/>
		<path class="st0" d="M280.91,13.5c0,3.2-0.81,5.72-2.43,7.55c-1.62,1.83-3.87,2.75-6.75,2.75c-2.95,0-5.22-0.9-6.82-2.7
			c-1.6-1.8-2.4-4.34-2.4-7.63c0-3.26,0.8-5.78,2.41-7.57c1.61-1.79,3.88-2.69,6.84-2.69c2.87,0,5.12,0.91,6.73,2.74
			C280.11,7.78,280.91,10.29,280.91,13.5z M264.98,13.5c0,2.71,0.58,4.76,1.73,6.16c1.15,1.4,2.83,2.1,5.03,2.1
			c2.22,0,3.89-0.7,5.02-2.09s1.7-3.45,1.7-6.17c0-2.69-0.56-4.73-1.69-6.12c-1.13-1.39-2.79-2.09-5-2.09c-2.22,0-3.9,0.7-5.05,2.1
			C265.55,8.8,264.98,10.83,264.98,13.5z"/>
		<path class="st0" d="M298.43,23.53L291.64,5.8h-0.11c0.13,1.4,0.19,3.07,0.19,5.01v12.72h-2.15v-20h3.5l6.33,16.5h0.11l6.39-16.5
			h3.47v20h-2.33V10.64c0-1.48,0.06-3.08,0.19-4.82h-0.11l-6.84,17.7H298.43z"/>
		<path class="st0" d="M330.22,23.53h-11.15v-20h11.15V5.6h-8.82v6.44h8.29v2.05h-8.29v7.36h8.82V23.53z"/>
		<path class="st0" d="M354.48,23.53h-2.65L340.89,6.75h-0.11c0.15,1.97,0.22,3.78,0.22,5.42v11.37h-2.15v-20h2.63l10.9,16.72h0.11
			c-0.02-0.25-0.06-1.04-0.12-2.37c-0.06-1.34-0.09-2.29-0.07-2.87V3.53h2.18V23.53z"/>
	</g>
</g>
</svg>
