<?xml version="1.0" encoding="utf-8"?>
<!-- Generator: Adobe Illustrator 23.0.4, SVG Export Plug-In . SVG Version: 6.00 Build 0)  -->
<svg version="1.1" id="Layer_1" xmlns="http://www.w3.org/2000/svg" xmlns:xlink="http://www.w3.org/1999/xlink" x="0px" y="0px"
	 viewBox="0 0 950.4 158.4" style="enable-background:new 0 0 950.4 158.4;" xml:space="preserve">
<style type="text/css">
	.st0{fill:#08BECE;}
</style>
<g id="XMLID_72_">
	<path id="XMLID_136_" class="st0" d="M917.71,54.69c0-7.23,5.85-13.11,13.14-13.11c7.23,0,13.14,5.88,13.14,13.11
		c0,7.3-5.92,13.19-13.14,13.19C923.56,67.88,917.71,61.99,917.71,54.69z M940.54,54.69c0-5.85-4.06-10.02-9.68-10.02
		c-5.74,0-9.68,4.17-9.68,10.02c0,5.92,3.95,10.06,9.68,10.06C936.48,64.75,940.54,60.61,940.54,54.69z M937.37,61.88h-3.42l-3.17-6
		h-2.35v6h-2.98V47.65h6.85c3.73,0,5.51,1.01,5.51,4.36c0,2.61-1.38,3.69-3.87,3.87L937.37,61.88z M932.34,53.72
		c1.6,0.04,2.72-0.34,2.72-2.09c0-1.94-2.05-1.79-3.43-1.79h-3.2v3.87H932.34z"/>
	<g id="XMLID_107_">
		<path id="XMLID_134_" class="st0" d="M92.05,28.59H61.73v96.96H38.32V28.59H8V8.78h84.05V28.59z"/>
		<path id="XMLID_132_" class="st0" d="M123.12,50.2c7.06-5.85,15.76-10.51,25.07-10.51c9.16,0,22.06,5.56,22.06,26.27v59.59h-22.21
			V74.97c0-6.75,0.45-17.41-9.16-17.41c-6.45,0-11.56,4.66-15.76,9.16v58.83h-22.21V8.78h22.21V50.2z"/>
		<path id="XMLID_129_" class="st0" d="M179.41,83.53c0-22.37,12.31-43.83,36.92-43.83c24.61,0,36.92,21.46,36.92,43.83
			c0,22.21-12.46,43.83-36.92,43.83C191.87,127.35,179.41,105.74,179.41,83.53z M230.44,83.53c0-10.51-2.1-27.47-14.11-27.47
			c-12.01,0-14.11,16.96-14.11,27.47c0,10.51,2.1,27.47,14.11,27.47C228.34,110.99,230.44,94.03,230.44,83.53z"/>
		<path id="XMLID_127_" class="st0" d="M310.14,116.85c-7.05,5.85-15.76,10.51-25.07,10.51c-9.16,0-22.06-5.55-22.06-26.26V41.5
			h22.21v50.58c0,6.75-0.45,17.41,9.16,17.41c6.45,0,11.56-4.66,15.76-9.16V41.5h22.21v84.05h-22.21V116.85z"/>
		<path id="XMLID_123_" class="st0" d="M368.68,97.93c-2.55,0-6.3,1.35-6.3,5.25c0,10.96,58.24-8.1,58.24,24.77
			c0,12.46-8.4,25.67-41.73,25.67c-28.97,0-38.87-10.21-38.87-21.16c0-6.46,4.05-9.76,9.16-12.76c-3.6-2.7-6.61-5.85-6.61-10.65
			c0-8.26,4.5-12.61,10.96-16.81c-6.15-6-10.51-13.51-10.51-23.11c0-18.61,15.76-29.42,33.92-29.42c7.36,0,14.41,2.1,20.71,5.85
			c4.5-4.2,8.56-6.9,15.16-6.9c2.1,0,4.35,0.15,6.45,0.6v15.61c-2.25-0.9-4.65-1.8-7.06-1.8c-2.4,0-3.9,0.75-6,1.8
			c2.4,4.5,4.35,9.46,4.5,14.26c0,18.61-15.61,29.42-33.77,29.42L368.68,97.93z M361.62,125.7c-2.1,1.35-3.45,2.55-3.45,5.25
			c0,7.8,15.76,8.25,21.01,8.25c3.75,0,23.27-0.45,23.27-7.2c0-4.35-3-3.9-16.21-4.66L361.62,125.7z M376.93,83.83
			c9.31,0,12.01-7.65,12.01-15.61c0-7.65-3.6-14.11-12.01-14.11c-9.31,0-12.16,7.81-12.16,15.76
			C364.77,77.52,368.38,83.83,376.93,83.83z"/>
		<path id="XMLID_121_" class="st0" d="M451.08,50.2c7.06-5.85,15.76-10.51,25.07-10.51c9.16,0,22.06,5.56,22.06,26.27v59.59h-22.21
			V74.97c0-6.75,0.45-17.41-9.16-17.41c-6.45,0-11.56,4.66-15.76,9.16v58.83h-22.21V8.78h22.21V50.2z"/>
		<path id="XMLID_119_" class="st0" d="M538.58,41.5h17.26v18.46h-17.26v42.78c0,4.05,1.2,8.25,8.4,8.25c3.75,0,6.15-1.5,8.86-3.15
			v16.96c-4.65,1.35-9.46,2.55-14.26,2.55c-13.81,0-25.21-7.8-25.21-26.12V59.96h-10.36V41.5h10.36V20.49h22.21V41.5z"/>
		<path id="XMLID_117_" class="st0" d="M648.3,125.55h-12.01l-19.81-95.46h-0.3l-20.86,95.46h-12.01L558.84,8.78h11.71l19.21,94.26
			h0.3l21.01-94.26h11.56l19.96,94.26h0.3l20.56-94.26h11.56L648.3,125.55z"/>
		<path id="XMLID_114_" class="st0" d="M669.91,84.12c0-31.07,14.71-43.83,33.17-43.83s33.17,12.76,33.17,43.83
			c0,31.07-14.71,43.83-33.17,43.83S669.91,115.19,669.91,84.12z M724.55,84.12c0-14.11-3.45-33.92-21.46-33.92
			s-21.46,19.81-21.46,33.92c0,14.11,3.45,33.92,21.46,33.92S724.55,98.24,724.55,84.12z"/>
		<path id="XMLID_112_" class="st0" d="M757.12,60.56h0.3c4.65-9.91,10.66-19.06,22.96-19.06h4.5v10.66
			c-15.31-2.1-23.27,14.41-27.77,26.42v46.98h-11.71V42.7h11.71V60.56z"/>
		<path id="XMLID_110_" class="st0" d="M806.05,81.13l30.77-38.43h13.06l-22.82,28.37l26.27,54.48h-12.61l-21.16-45.03l-13.51,16.66
			v28.37h-11.71V8.78h11.71V81.13z"/>
		<path id="XMLID_108_" class="st0" d="M904.06,61.16c-4.65-6.9-10.21-10.96-18.91-10.96c-7.66,0-14.86,3.9-14.86,12.31
			c0,20.26,43.68,11.41,43.68,39.33c0,16.21-11.56,26.12-27.17,26.12c-13.36,0-24.17-5.85-30.92-17.41l9.31-5.85
			c4.5,8.56,11.71,13.36,21.61,13.36c8.56,0,16.21-4.65,16.21-14.11c0-20.86-43.68-10.96-43.68-40.67
			c0-14.26,11.71-22.96,25.36-22.96c11.56,0,21.16,4.8,27.62,14.41L904.06,61.16z"/>
	</g>
</g>
</svg>
